# xmcd CD database file
#
# Track frame offsets:
#	150
#	20400
#	39150
#	59700
#	75450
#	96075
#	117900
#	137737
#	161025
#	185850
#
# Disc length: 2730 seconds
#
# Revision: 0
# Processed by: cddbd v1.5PL3 Copyright (c) Steve Scherf et al.
# Submitted via: CDex 1.51
#
DISCID=830aa80a
DTITLE=KONTA - KONTA
DYEAR=1997
DGENRE=Japanese Pop
TTITLE0=エース5枚に骰子の7
TTITLE1=馬に蹴られろ!
TTITLE2=からだだけは正直だ
TTITLE3=GIFT
TTITLE4=コラール
TTITLE5=愛を語ると
TTITLE6=出てくぜ
TTITLE7=ダンサー
TTITLE8=あいつがいれば完璧な日
TTITLE9=パパによろしく
EXTD=YEAR: 1997
EXTT0=
EXTT1=
EXTT2=
EXTT3=
EXTT4=
EXTT5=
EXTT6=
EXTT7=
EXTT8=
EXTT9=
PLAYORDER=
